<?xml version="1.0" encoding="UTF-8" standalone="no"?>
<!-- Created with Inkscape (http://www.inkscape.org/) -->

<svg
   width="55.680492mm"
   height="76.189308mm"
   viewBox="0 0 55.680492 76.189308"
   version="1.1"
   id="svg5"
   inkscape:version="1.1.1 (3bf5ae0d25, 2021-09-20)"
   sodipodi:docname="AA Just The Fist (White).svg"
   xmlns:inkscape="http://www.inkscape.org/namespaces/inkscape"
   xmlns:sodipodi="http://sodipodi.sourceforge.net/DTD/sodipodi-0.dtd"
   xmlns="http://www.w3.org/2000/svg"
   xmlns:svg="http://www.w3.org/2000/svg">
  <sodipodi:namedview
     id="namedview7"
     pagecolor="#ffffff"
     bordercolor="#666666"
     borderopacity="1.0"
     inkscape:pageshadow="2"
     inkscape:pageopacity="0.0"
     inkscape:pagecheckerboard="0"
     inkscape:document-units="mm"
     showgrid="false"
     inkscape:zoom="0.45291836"
     inkscape:cx="-729.71208"
     inkscape:cy="-113.70703"
     inkscape:window-width="1920"
     inkscape:window-height="1129"
     inkscape:window-x="-8"
     inkscape:window-y="-8"
     inkscape:window-maximized="1"
     inkscape:current-layer="layer1"
     fit-margin-top="0"
     fit-margin-left="0"
     fit-margin-right="0"
     fit-margin-bottom="0" />
  <defs
     id="defs2" />
  <g
     inkscape:label="Layer 1"
     inkscape:groupmode="layer"
     id="layer1"
     transform="translate(-82.818002,-89.40212)">
    <g
       id="g1747"
       transform="matrix(1.3167254,0,0,1.3167254,-95.102091,48.976931)"
       style="fill:#ffffff">
      <path
         style="fill:#ffffff;fill-opacity:1;stroke:none;stroke-width:0.264583px;stroke-linecap:butt;stroke-linejoin:miter;stroke-opacity:1"
         d="M 84.989915,79.723225 97.588664,61.03164 95.523295,40.791029 l 12.598745,-6.505911 7.8484,9.500695 -1.9621,2.994785 -5.16342,-1.858833 -2.16863,-3.511127 -0.20654,2.478445 h -2.58171 l 10.01704,12.185673 1.34248,4.750348 7.33206,-1.239221 -4.64707,6.092836 -6.09284,3.407859 -8.77782,18.278512 -12.648493,0.755274 z"
         id="path1735"
         sodipodi:nodetypes="cccccccccccccccccc" />
      <path
         style="fill:#ffffff;fill-opacity:1;stroke:none;stroke-width:0.264583px;stroke-linecap:butt;stroke-linejoin:miter;stroke-opacity:1"
         d="m 110.29068,34.078582 4.23401,5.576493 5.26669,-4.027466 -2.78825,-5.36996 z"
         id="path1737" />
      <path
         style="fill:#ffffff;fill-opacity:1;stroke:none;stroke-width:0.264583px;stroke-linecap:butt;stroke-linejoin:miter;stroke-opacity:1"
         d="m 115.39271,40.819189 2.13589,2.774828 -2.08112,3.17645 7.77682,-3.888412 -2.68356,-5.567913 z"
         id="path1739" />
      <path
         style="fill:#ffffff;fill-opacity:1;stroke:none;stroke-width:0.264583px;stroke-linecap:butt;stroke-linejoin:miter;stroke-opacity:1"
         d="m 112.08847,50.239001 11.46443,-5.403612 1.82554,5.184547 -10.29607,4.308287 z"
         id="path1741" />
      <path
         style="fill:#ffffff;fill-opacity:1;stroke:none;stroke-width:0.264583px;stroke-linecap:butt;stroke-linejoin:miter;stroke-opacity:1"
         d="m 115.59352,55.861682 1.0223,3.651089 10.66119,-2.701806 c 0,0 -0.6572,-4.965483 -1.09533,-4.965483 -0.43813,0 -10.58816,4.0162 -10.58816,4.0162 z"
         id="path1743" />
      <path
         style="fill:#ffffff;fill-opacity:1;stroke:none;stroke-width:0.264583px;stroke-linecap:butt;stroke-linejoin:miter;stroke-opacity:1"
         d="m 107.08648,45.702524 3.36813,3.432024 2.23629,-1.378286 z"
         id="path1745" />
    </g>
  </g>
</svg>
